<svg width="831" height="829" viewBox="0 0 831 829" fill="none" xmlns="http://www.w3.org/2000/svg">
<path opacity="0.07" d="M755 349.3C755 353.8 754.9 358.3 754.6 362.5C797.6 395.2 830.7 465.3 830.7 527C830.7 594.2 791.4 625.9 742.9 597.9C742.8 597.8 742.7 597.8 742.6 597.7L437.9 422C437.8 421.9 437.7 421.9 437.5 421.8C383 390.3 338.8 303.6 338.8 228.1C338.8 157.4 377.6 121.5 427.3 143.2C433.4 94.7001 465.9 73.8001 505.1 96.5001C523.9 107.4 541.2 126.5 554.7 149.5C574.3 120.4 607.7 113 645.5 134.8C706 169.6 755 265.7 755 349.3Z" fill="url(#paint0_linear_291_5504)"/>
<path opacity="0.4" d="M705 397.3C705 401.8 704.9 406.3 704.6 410.5C747.6 443.2 780.7 513.3 780.7 575C780.7 642.2 741.4 673.9 692.9 645.9C692.8 645.8 692.7 645.8 692.6 645.7L387.9 470C387.8 469.9 387.7 469.9 387.5 469.8C333 438.3 288.8 351.6 288.8 276.1C288.8 205.4 327.6 169.5 377.3 191.2C383.4 142.7 415.9 121.8 455.1 144.5C473.9 155.4 491.2 174.5 504.7 197.5C524.3 168.4 557.7 161 595.5 182.8C656 217.6 705 313.7 705 397.3Z" fill="url(#paint1_linear_291_5504)"/>
<path opacity="0.2" d="M222.6 482.9L176.2 456.1V440.4L222.6 467.2C226.4 469.4 231.9 473.8 236.6 480.6C241.7 487.9 245.3 497.1 245.3 507.1C245.3 518.1 242.5 524.4 237.1 526.2C232.1 527.9 226.2 525 222.5 522.9L203.4 511.9L203.3 511.8C201.7 510.8 199.1 509.9 197 510.5C195.3 511 193.4 512.7 193.4 518.8C193.4 524.9 195.3 528.7 196.9 530.9C198.9 533.7 201.5 535.7 203.1 536.5L203.3 536.6L261.6 570.3V586L203.6 552.5C199.6 550.4 193.9 546 188.9 539C183.5 531.4 179.7 521.7 179.8 510.9C179.8 500.2 183.5 494.7 188.9 493.2C193.9 491.8 199.6 493.8 203.6 496.3L222.5 507.2C225.2 508.8 227.3 509.5 228.6 509C229.6 508.7 231.6 507.2 231.6 499.2C231.6 494.1 229.9 490.7 228.4 488.4C226.6 485.8 224.1 483.8 222.6 482.9Z" fill="white"/>
<path d="M186.199 452.2C186.199 465.1 178.599 471.2 169.299 465.9C159.999 460.5 152.399 445.7 152.399 432.7C152.399 419.8 159.999 413.7 169.299 419C178.599 424.4 186.199 439.3 186.199 452.2Z" fill="#34C759"/>
<path d="M285.199 591.2C285.199 604.1 277.599 610.2 268.299 604.9C258.999 599.5 251.399 584.7 251.399 571.7C251.399 558.8 258.999 552.7 268.299 558C277.599 563.4 285.199 578.3 285.199 591.2Z" fill="#34C759"/>
<path opacity="0.07" d="M365.1 259L665 432.1V590.8L365 417.7L365.1 259Z" fill="url(#paint2_linear_291_5504)"/>
<path opacity="0.3" d="M325 279L624.9 452.1V610.8L325 437.7V279Z" fill="url(#paint3_linear_291_5504)"/>
<path d="M351.899 373.5C351.899 386.3 359.499 401 368.799 406.4C378.099 411.8 385.699 405.8 385.699 393C385.699 380.2 378.099 365.5 368.799 360.1C359.499 354.7 351.899 360.7 351.899 373.5Z" fill="#FACC15"/>
<path opacity="0.15" d="M394.2 398.2C394.2 404.1 397.7 411 402.1 413.5C406.4 416 409.9 413.2 409.9 407.3C409.9 401.4 406.4 394.5 402 392C397.7 389.5 394.2 392.3 394.2 398.2Z" fill="white"/>
<path opacity="0.15" d="M418.3 412.1C418.3 418 421.8 424.9 426.2 427.4C430.5 429.9 434 427.1 434 421.2C434 415.3 430.5 408.4 426.1 405.9C421.8 403.4 418.3 406.2 418.3 412.1Z" fill="white"/>
<path opacity="0.15" d="M549.199 439.1V529.4L537.399 522.6V432.3L549.199 439.1Z" fill="white"/>
<path opacity="0.15" d="M575 454.1V544.4L563.2 537.6V447.3L575 454.1Z" fill="white"/>
<path opacity="0.15" d="M600.9 469.1V559.4L589.1 552.6V462.3L600.9 469.1Z" fill="white"/>
<path opacity="0.07" d="M365 475.9L664.9 649V807.7L365 634.6V475.9Z" fill="url(#paint4_linear_291_5504)"/>
<path opacity="0.3" d="M325 496.9L624.9 670V828.7L325 655.6V496.9Z" fill="url(#paint5_linear_291_5504)"/>
<path d="M351.899 591.4C351.899 604.2 359.499 618.9 368.799 624.3C378.099 629.7 385.699 623.7 385.699 610.9C385.699 598.1 378.099 583.4 368.799 578C359.499 572.6 351.899 578.6 351.899 591.4Z" fill="#FACC15"/>
<path opacity="0.15" d="M394.2 616.2C394.2 622.1 397.7 629 402.1 631.5C406.4 634 409.9 631.2 409.9 625.3C409.9 619.4 406.4 612.5 402 610C397.7 607.5 394.2 610.2 394.2 616.2Z" fill="white"/>
<path opacity="0.15" d="M418.2 630.1C418.2 636 421.7 642.9 426.1 645.4C430.4 647.9 433.9 645.1 433.9 639.2C433.9 633.3 430.4 626.4 426 623.9C421.7 621.3 418.2 624.1 418.2 630.1Z" fill="white"/>
<path opacity="0.15" d="M549.199 660.1V750.4L537.399 743.6V653.3L549.199 660.1Z" fill="white"/>
<path opacity="0.15" d="M575 675.1V765.4L563.2 758.6V668.3L575 675.1Z" fill="white"/>
<path opacity="0.15" d="M600.9 690.1V780.4L589.1 773.6V683.3L600.9 690.1Z" fill="white"/>
<path opacity="0.3" d="M58.7002 43.9001L245.6 151.8V498.1L58.7002 390.1V43.9001Z" fill="url(#paint6_linear_291_5504)"/>
<path d="M174.1 169.3C174.1 186.6 164.1 194.8 151.8 187.6C139.5 180.4 129.5 160.6 129.5 143.3C129.5 126 139.5 117.8 151.8 125C164.1 132.2 174.1 152 174.1 169.3Z" fill="#FACC15"/>
<path d="M151.8 201.5C131.9 189.9 115.5 200.8 112.6 225.8C112.1 230.1 115.4 235.9 119.4 238.2L184.3 276.1C188.3 278.4 191.6 276.6 191.1 271.6C188.1 243.1 171.6 213.1 151.8 201.5Z" fill="#FACC15"/>
<path opacity="0.15" d="M96.2002 268.5L207.6 332.8V346.4L96.2002 282.1V268.5Z" fill="white"/>
<path opacity="0.15" d="M107.5 302L195.8 352.9V366.5L107.5 315.6V302Z" fill="white"/>
<path d="M130 359.2L0 284.1V322.8L130 397.9V359.2Z" fill="#FACC15"/>
<path opacity="0.2" d="M285.9 0L313.7 54.6C317.5 62.1 316.9 69.6 312.3 71.4C307.7 73.2 300.9 68.5 297.1 61L296.8 60.3V120.9C296.8 127.8 292 130.6 286 127.2C280 123.7 275.2 115.4 275.2 108.5V47.9L274.9 48.2C271.1 51.3 264.2 48.1 259.7 41C255.1 33.9 254.5 25.7 258.3 22.6L285.9 0Z" fill="url(#paint7_linear_291_5504)"/>
<path opacity="0.2" d="M285.9 806.2L258.1 751.6C254.3 744.1 254.9 736.6 259.5 734.8C264.1 733 270.9 737.7 274.7 745.2L275 745.9V685.3C275 678.4 279.8 675.6 285.8 679C291.8 682.5 296.6 690.8 296.6 697.7V758.3L296.9 758C300.7 754.9 307.6 758.1 312.1 765.2C316.7 772.3 317.3 780.5 313.5 783.6L285.9 806.2Z" fill="url(#paint8_linear_291_5504)"/>
<defs>
<linearGradient id="paint0_linear_291_5504" x1="812.811" y1="158.335" x2="503.383" y2="451.834" gradientUnits="userSpaceOnUse">
<stop stop-color="white"/>
<stop offset="1" stop-color="white" stop-opacity="0"/>
</linearGradient>
<linearGradient id="paint1_linear_291_5504" x1="762.8" y1="206.335" x2="453.373" y2="499.834" gradientUnits="userSpaceOnUse">
<stop stop-color="white"/>
<stop offset="1" stop-color="white" stop-opacity="0"/>
</linearGradient>
<linearGradient id="paint2_linear_291_5504" x1="508.869" y1="271.69" x2="520.043" y2="552.409" gradientUnits="userSpaceOnUse">
<stop stop-color="white"/>
<stop offset="1" stop-color="white" stop-opacity="0"/>
</linearGradient>
<linearGradient id="paint3_linear_291_5504" x1="468.867" y1="291.69" x2="480.041" y2="572.409" gradientUnits="userSpaceOnUse">
<stop stop-color="white"/>
<stop offset="1" stop-color="white" stop-opacity="0"/>
</linearGradient>
<linearGradient id="paint4_linear_291_5504" x1="508.848" y1="488.624" x2="520.022" y2="769.342" gradientUnits="userSpaceOnUse">
<stop stop-color="white"/>
<stop offset="1" stop-color="white" stop-opacity="0"/>
</linearGradient>
<linearGradient id="paint5_linear_291_5504" x1="468.846" y1="509.624" x2="480.02" y2="790.342" gradientUnits="userSpaceOnUse">
<stop stop-color="white"/>
<stop offset="1" stop-color="white" stop-opacity="0"/>
</linearGradient>
<linearGradient id="paint6_linear_291_5504" x1="265.63" y1="74.3355" x2="99.7201" y2="361.775" gradientUnits="userSpaceOnUse">
<stop stop-color="white"/>
<stop offset="1" stop-color="white" stop-opacity="0"/>
</linearGradient>
<linearGradient id="paint7_linear_291_5504" x1="305.683" y1="55.0759" x2="254.962" y2="83.3501" gradientUnits="userSpaceOnUse">
<stop stop-color="white"/>
<stop offset="1" stop-color="white" stop-opacity="0"/>
</linearGradient>
<linearGradient id="paint8_linear_291_5504" x1="266.064" y1="751.161" x2="316.785" y2="722.887" gradientUnits="userSpaceOnUse">
<stop stop-color="white"/>
<stop offset="1" stop-color="white" stop-opacity="0"/>
</linearGradient>
</defs>
</svg>
